<svg width="320" height="432" viewBox="0 0 320 432" fill="none" xmlns="http://www.w3.org/2000/svg">
<path fill-rule="evenodd" clip-rule="evenodd" d="M157.311 151.353C152.075 148.043 145.376 148.179 140.279 151.701C135.182 155.223 132.669 161.452 133.889 167.537L166.742 331.37C167.943 337.359 172.538 342.086 178.48 343.44C184.42 344.795 190.603 342.527 194.269 337.647L222.99 299.422L260.471 353.97C265.321 361.026 274.954 362.805 281.992 357.943C289.028 353.081 290.802 343.419 285.954 336.363L248.472 281.813L294.321 268.514C300.174 266.816 304.489 261.832 305.342 255.781C306.194 249.732 303.428 243.744 298.273 240.484L157.311 151.353Z" fill="#F4F4F4"/>
<path d="M113.023 23.375C169.899 -16.5988 230.264 3.61199 253.337 18.7141C277.916 31.2007 325.552 73.5191 319.468 142.9C316.798 173.358 307.105 200.321 295.336 222.421L164.601 139.758C154.74 133.523 142.122 133.779 132.523 140.413C122.923 147.046 118.19 158.778 120.488 170.239L146.526 300.091C143.131 300.218 139.392 300.485 134.636 300.75C125.61 301.253 115.286 310.296 111.252 314.754C109.531 316.788 107.722 318.495 102.79 326.105C97.8578 333.716 91.7741 340.935 81.8023 361.603C71.8304 382.27 51.4985 424.757 50.5471 426.41C49.5956 428.063 48.5435 433.237 43.0807 431.727C37.6179 430.217 30.9162 427.989 21.0048 422.251C11.0933 416.513 5.81878 411.806 1.78313 407.817C-2.25252 403.828 1.69044 400.327 2.64189 398.675C3.59333 397.022 30.1199 358.121 42.9826 339.127C55.8453 320.133 59.0381 311.24 63.1445 303.152C67.2509 295.063 67.8207 292.639 68.716 290.127C70.5493 284.395 73.1965 270.908 69.1185 262.818C64.021 252.705 61.796 247.561 56.295 240.52C50.7821 232.04 44.6119 224.208 42.216 221.352L39.531 219.797C24.5184 195.027 26.0996 164.392 28.7667 152.171C33.1539 125.894 56.1473 63.3488 113.023 23.375Z" fill="white"/>
</svg>
